<svg xmlns="http://www.w3.org/2000/svg" viewBox="0 0 15.2 15.2"><defs><style>.cls-1{fill:#68387c;}.cls-2{fill:#f9f9f9;}.cls-3{fill:none;stroke:#fff;stroke-linecap:round;stroke-miterlimit:10;stroke-width:0.5px;}</style></defs><g id="Слой_2" data-name="Слой 2"><g id="Слой_1-2" data-name="Слой 1"><ellipse class="cls-1" cx="7.6" cy="7.6" rx="7.63" ry="7.55" transform="translate(-3.15 7.6) rotate(-45)"/><path class="cls-2" d="M8.69,12.29a4,4,0,0,1-1.95-.58,8,8,0,0,1-1.32-.83,8.53,8.53,0,0,1-1.85-2,10.93,10.93,0,0,1-.74-1.27,2.1,2.1,0,0,1,.11-2.42,2.19,2.19,0,0,1,1-.5,1,1,0,0,1,.82.06c.12.1.17.31.26.72s0,.27.12,1.11c0,.27,0,.42,0,.54s-.16.08-.33.22a.76.76,0,0,0-.22.25c-.06.15,0,.35.49.9a8.73,8.73,0,0,0,.85.85,10.59,10.59,0,0,0,.87.71c.57.43.84.45,1,.37s.12-.12.34-.28a.78.78,0,0,1,.33-.17l.24.07.28.09.18.05c.16,0,.53.15.72.22s.51.18.58.31a.69.69,0,0,1,.06.43,1.09,1.09,0,0,1-.13.39,1.42,1.42,0,0,1-.38.43A2.27,2.27,0,0,1,8.69,12.29Z"/><path class="cls-3" d="M6.8,7.28a1.17,1.17,0,0,1,1.06.41,1.23,1.23,0,0,1,.25.92"/><path class="cls-3" d="M7.75,4.3a3.1,3.1,0,0,1,2.86,1.07,3.29,3.29,0,0,1,.66,2.47"/><path class="cls-3" d="M6.89,5.85a2.54,2.54,0,0,1,2.31.86,2.69,2.69,0,0,1,.54,2"/></g></g></svg>