<svg xmlns="http://www.w3.org/2000/svg" viewBox="0 0 72.8 36.81"><defs><style>.cls-1{fill:#201600;}.cls-2{fill:#f1c046;}</style></defs><g id="Слой_2" data-name="Слой 2"><g id="Слой_1-2" data-name="Слой 1"><path class="cls-1" d="M.2,0H10.9V12.8H7.8V2.4H3.3V12.8H.2Z"/><path class="cls-1" d="M13.9,3.1h2.5l.2,1h.1a4.71,4.71,0,0,1,3-1.2c2.5,0,4.1,1.9,4.1,5,0,3.3-2.1,5.3-4.4,5.3a4,4,0,0,1-2.5-1l.1,1.5v2.9H13.9Zm6.7,4.7c0-1.8-.6-2.6-1.8-2.6a2.27,2.27,0,0,0-1.8.9v4a2.72,2.72,0,0,0,1.7.6C19.7,10.7,20.6,9.8,20.6,7.8Z"/><path class="cls-1" d="M25.2,10.1c0-2.1,1.7-3.2,5.9-3.6a1.38,1.38,0,0,0-1.6-1.4,7.09,7.09,0,0,0-2.8.9L25.6,4.1A9.78,9.78,0,0,1,30,2.8c2.7,0,4.1,1.4,4.1,4.4v5.6H31.6l-.2-1h-.1a4.71,4.71,0,0,1-3,1.2,2.9,2.9,0,0,1-3.1-2.6Zm5.9-.1V8.3c-2.2.3-2.9.9-2.9,1.6s.5.9,1.2.9a2.29,2.29,0,0,0,1.7-.8Z"/><path class="cls-1" d="M36.8,3.1h4.4c2.3,0,4.2.6,4.2,2.6a2.13,2.13,0,0,1-1.8,2v.1c1.3.3,2.1,1,2.1,2.3,0,2-2,2.8-4.3,2.8H36.7ZM41,6.9c1,0,1.4-.4,1.4-.9S42,5,41,5H39.8V6.9Zm.3,4c1.1,0,1.5-.4,1.5-1.1s-.5-1-1.6-1H39.7v2.1Z"/><path class="cls-2" d="M49.8,16.5H47l-.3-4.3V10.4H60.2v1.8l-.3,4.3H57.1V12.8H49.6ZM55.6,2.4H52.9c-.3,1.5-.4,2.3-.7,3.9-.8,3.7-2.1,5.8-4.3,5.9l-.5-1.8c.6-.2,1.3-1.3,2-4.4.5-2.2.7-3.5,1.1-5.9h8.1V12H55.5Z"/><path class="cls-2" d="M64.8,0h3.7l4.3,12.8H69.5L67.7,6.3c-.4-1.3-.8-2.8-1.1-4.1h-.1a40.47,40.47,0,0,1-1.1,4.1l-1.8,6.5H60.4ZM63.3,7.5h6.6V9.7H63.3Z"/><path class="cls-1" d="M0,26.7H4.4c2.3,0,4.2.6,4.2,2.6a2.13,2.13,0,0,1-1.7,2v.1c1.3.3,2.1,1,2.1,2.3,0,2-2,2.8-4.3,2.8H0Zm4.2,3.8c1,0,1.4-.4,1.4-.9s-.4-1-1.4-1H3v1.9Zm.3,4C5.6,34.5,6,34,6,33.4s-.5-1-1.6-1H2.9v2.1Z"/><path class="cls-1" d="M11.1,26.7h3.5L15.9,30c.3.8.5,1.5.7,2.2h.1c.2-.7.5-1.4.8-2.2l1.2-3.3h3.5v9.8H19.5V34c0-1,.2-3.1.3-4.2h-.1c-.3.9-.7,1.9-1,2.7l-1.2,3.1H15.8l-1.2-3.1c-.3-.8-.7-1.9-1-2.7h-.1c.1,1.1.3,3.2.3,4.2v2.5H11.1Z"/><path class="cls-1" d="M24.3,31.5a4.93,4.93,0,0,1,4.8-5.1h.2c3,0,4.4,2,4.4,4.7a5.7,5.7,0,0,1-.1,1.3H27.4a2.52,2.52,0,0,0,2.7,2.1,4,4,0,0,0,2.2-.6l1,1.7a7,7,0,0,1-3.7,1.1C26.6,36.6,24.3,34.8,24.3,31.5ZM31,30.4a1.59,1.59,0,0,0-1.4-1.8h-.4a2,2,0,0,0-2,1.8Z"/><path class="cls-1" d="M35.2,31.5a5.12,5.12,0,0,1,5.4-5.1,4.62,4.62,0,0,1,3,1.1l-1.4,1.9a2,2,0,0,0-1.4-.6c-1.5,0-2.4,1.1-2.4,2.8s1,2.8,2.3,2.8a3.41,3.41,0,0,0,1.9-.7l1.2,1.9a5.43,5.43,0,0,1-3.4,1.2,4.83,4.83,0,0,1-5.2-4.5Z"/><path class="cls-1" d="M47.7,28.9H44.6V26.6h9.2v2.3H50.7v7.5H47.6V28.9Z"/><path class="cls-1" d="M54.8,31.5a4.93,4.93,0,0,1,4.8-5.1h.2c3,0,4.4,2,4.4,4.7a5.7,5.7,0,0,1-.1,1.3H57.9a2.52,2.52,0,0,0,2.7,2.1,4,4,0,0,0,2.2-.6l1,1.7a7,7,0,0,1-3.7,1.1,4.86,4.86,0,0,1-5.2-4.6A1.27,1.27,0,0,1,54.8,31.5Zm6.7-1.1a1.59,1.59,0,0,0-1.4-1.8h-.4a2,2,0,0,0-2,1.8Z"/></g></g></svg>